<?xml version="1.0" encoding="utf-8"?><svg width="16" height="16" xmlns="http://www.w3.org/2000/svg" viewBox="0 0 16 16"><path fill-rule="evenodd" clip-rule="evenodd" d="M3.333 3.417A.583.583 0 002.75 4v9.333c0 .322.261.584.583.584h9.334a.583.583 0 00.583-.584V4a.583.583 0 00-.583-.583H3.333zM1.25 4c0-1.15.933-2.083 2.083-2.083h9.334c1.15 0 2.083.932 2.083 2.083v9.333c0 1.15-.933 2.084-2.083 2.084H3.333a2.083 2.083 0 01-2.083-2.084V4z"/><path fill-rule="evenodd" clip-rule="evenodd" d="M10.667.583a.75.75 0 01.75.75V4a.75.75 0 11-1.5 0V1.333a.75.75 0 01.75-.75zM5.333.583a.75.75 0 01.75.75V4a.75.75 0 11-1.5 0V1.333a.75.75 0 01.75-.75zM1.25 6.667a.75.75 0 01.75-.75h12a.75.75 0 010 1.5H2a.75.75 0 01-.75-.75z"/></svg>