<?xml version="1.0" encoding="utf-8"?><svg width="22" height="22" fill="none" xmlns="http://www.w3.org/2000/svg" viewBox="0 0 22 22"><path d="M9.462 15.72l-2.12 2.12a2.249 2.249 0 11-3.183-3.18l4.243-4.244a2.25 2.25 0 013.181 0 .75.75 0 001.061-1.06 3.75 3.75 0 00-5.303 0L3.1 13.598a3.75 3.75 0 105.303 5.303l2.121-2.12a.75.75 0 10-1.06-1.061z" fill="#fff"/><path d="M18.901 3.098a3.75 3.75 0 00-5.303 0l-2.545 2.545a.75.75 0 101.061 1.06l2.545-2.544A2.25 2.25 0 0117.84 7.34l-4.667 4.667a2.25 2.25 0 01-3.181 0 .75.75 0 00-1.06 1.06 3.75 3.75 0 005.302 0l4.666-4.666a3.75 3.75 0 000-5.303z" fill="#fff"/></svg>