<?xml version="1.0" encoding="utf-8"?><svg width="16" height="16" xmlns="http://www.w3.org/2000/svg" viewBox="0 0 16 16"><path fill-rule="evenodd" clip-rule="evenodd" d="M4.583 4a.75.75 0 01.75-.75H14a.75.75 0 010 1.5H5.333a.75.75 0 01-.75-.75zM4.583 8a.75.75 0 01.75-.75H14a.75.75 0 010 1.5H5.333a.75.75 0 01-.75-.75zM4.583 12a.75.75 0 01.75-.75H14a.75.75 0 010 1.5H5.333a.75.75 0 01-.75-.75zM1.25 4A.75.75 0 012 3.25h.006a.75.75 0 110 1.5H2A.75.75 0 011.25 4zM1.25 8A.75.75 0 012 7.25h.006a.75.75 0 110 1.5H2A.75.75 0 011.25 8zM1.25 12a.75.75 0 01.75-.75h.006a.75.75 0 010 1.5H2a.75.75 0 01-.75-.75z"/></svg>