<?xml version="1.0" encoding="utf-8"?><svg width="17" height="17" fill="none" xmlns="http://www.w3.org/2000/svg" viewBox="0 0 17 17"><path d="M14.378 4.857a.725.725 0 00-.337.968l.09-.044-.09.044A6.157 6.157 0 018.5 14.65 6.157 6.157 0 012.35 8.5 6.157 6.157 0 018.5 2.35c1.406 0 2.725.459 3.818 1.327a.725.725 0 10.902-1.135A7.612 7.612 0 008.5.9C4.31.9.9 4.31.9 8.5c0 4.19 3.41 7.6 7.6 7.6 4.19 0 7.6-3.41 7.6-7.6 0-1.16-.254-2.274-.754-3.306a.724.724 0 00-.968-.337zm0 0s0 0 0 0l.044.09-.044-.09s0 0 0 0z" fill="url(#fpaint0_linear_257_15929)" stroke="url(#fpaint1_linear_257_15929)" stroke-width=".2"/><path d="M8.5 3.4c-.4 0-.725.325-.725.725V8.5c0 .4.325.725.725.725h3.125a.725.725 0 000-1.45h-2.4v-3.65c0-.4-.325-.725-.725-.725z" fill="url(#fpaint2_linear_257_15929)" stroke="url(#fpaint3_linear_257_15929)" stroke-width=".2"/><defs><linearGradient id="fpaint0_linear_257_15929" x1="1" y1="1" x2="17.059" y2="2.236" gradientUnits="userSpaceOnUse"><stop stop-color="#6A3093"/><stop offset="1" stop-color="#A044FF"/></linearGradient><linearGradient id="fpaint1_linear_257_15929" x1="1" y1="1" x2="17.059" y2="2.236" gradientUnits="userSpaceOnUse"><stop stop-color="#6A3093"/><stop offset="1" stop-color="#A044FF"/></linearGradient><linearGradient id="fpaint2_linear_257_15929" x1="7.875" y1="3.5" x2="12.57" y2="3.781" gradientUnits="userSpaceOnUse"><stop stop-color="#6A3093"/><stop offset="1" stop-color="#A044FF"/></linearGradient><linearGradient id="fpaint3_linear_257_15929" x1="7.875" y1="3.5" x2="12.57" y2="3.781" gradientUnits="userSpaceOnUse"><stop stop-color="#6A3093"/><stop offset="1" stop-color="#A044FF"/></linearGradient></defs></svg>