<?xml version="1.0" encoding="utf-8"?><svg width="18" height="17" fill="none" xmlns="http://www.w3.org/2000/svg" viewBox="0 0 18 17"><g opacity=".2" fill="#000"><path d="M9 1.778C5.152 1.778 1.8 4.284 0 8c1.8 3.716 5.152 6.222 9 6.222S16.2 11.717 18 8c-1.8-3.716-5.152-6.222-9-6.222zm0 10.111c-2.071 0-3.75-1.74-3.75-3.889 0-2.148 1.679-3.889 3.75-3.889 2.071 0 3.75 1.74 3.75 3.889 0 2.148-1.679 3.889-3.75 3.889z"/><path d="M9 10.333c1.243 0 2.25-1.044 2.25-2.333 0-1.289-1.007-2.333-2.25-2.333S6.75 6.71 6.75 8c0 1.289 1.007 2.333 2.25 2.333z"/></g><rect x="1.473" y="14.329" width="20.037" height="2.523" rx="1.261" transform="rotate(-45 1.473 14.329)" fill="#C4C4C4" stroke="#fff"/></svg>