<?xml version="1.0" encoding="utf-8"?><svg viewBox="0 0 22 22" xmlns="http://www.w3.org/2000/svg" xmlns:xlink="http://www.w3.org/1999/xlink"><style>:root>svg{display:none}:root>svg:target{display:block}</style><svg viewBox="0 0 16 16" id="calendar" xmlns="http://www.w3.org/2000/svg"><path fill-rule="evenodd" clip-rule="evenodd" d="M3.333 3.417A.583.583 0 002.75 4v9.333c0 .322.261.584.583.584h9.334a.583.583 0 00.583-.584V4a.583.583 0 00-.583-.583H3.333zM1.25 4c0-1.15.933-2.083 2.083-2.083h9.334c1.15 0 2.083.932 2.083 2.083v9.333c0 1.15-.933 2.084-2.083 2.084H3.333a2.083 2.083 0 01-2.083-2.084V4z"/><path fill-rule="evenodd" clip-rule="evenodd" d="M10.667.583a.75.75 0 01.75.75V4a.75.75 0 11-1.5 0V1.333a.75.75 0 01.75-.75zM5.333.583a.75.75 0 01.75.75V4a.75.75 0 11-1.5 0V1.333a.75.75 0 01.75-.75zM1.25 6.667a.75.75 0 01.75-.75h12a.75.75 0 010 1.5H2a.75.75 0 01-.75-.75z"/></svg><svg fill="none" viewBox="0 0 14 9" id="drop-arrow" xmlns="http://www.w3.org/2000/svg"><path d="M1 1l6 6 6-6" stroke="#222" stroke-width="1.5"/></svg><svg fill="none" viewBox="0 0 22 22" id="link" xmlns="http://www.w3.org/2000/svg"><path d="M9.462 15.72l-2.12 2.12a2.249 2.249 0 11-3.183-3.18l4.243-4.244a2.25 2.25 0 013.181 0 .75.75 0 001.061-1.06 3.75 3.75 0 00-5.303 0L3.1 13.598a3.75 3.75 0 105.303 5.303l2.121-2.12a.75.75 0 10-1.06-1.061z" fill="#fff"/><path d="M18.901 3.098a3.75 3.75 0 00-5.303 0l-2.545 2.545a.75.75 0 101.061 1.06l2.545-2.544A2.25 2.25 0 0117.84 7.34l-4.667 4.667a2.25 2.25 0 01-3.181 0 .75.75 0 00-1.06 1.06 3.75 3.75 0 005.302 0l4.666-4.666a3.75 3.75 0 000-5.303z" fill="#fff"/></svg><svg viewBox="0 0 16 16" id="list" xmlns="http://www.w3.org/2000/svg"><path fill-rule="evenodd" clip-rule="evenodd" d="M4.583 4a.75.75 0 01.75-.75H14a.75.75 0 010 1.5H5.333a.75.75 0 01-.75-.75zM4.583 8a.75.75 0 01.75-.75H14a.75.75 0 010 1.5H5.333a.75.75 0 01-.75-.75zM4.583 12a.75.75 0 01.75-.75H14a.75.75 0 010 1.5H5.333a.75.75 0 01-.75-.75zM1.25 4A.75.75 0 012 3.25h.006a.75.75 0 110 1.5H2A.75.75 0 011.25 4zM1.25 8A.75.75 0 012 7.25h.006a.75.75 0 110 1.5H2A.75.75 0 011.25 8zM1.25 12a.75.75 0 01.75-.75h.006a.75.75 0 010 1.5H2a.75.75 0 01-.75-.75z"/></svg><svg fill="none" viewBox="0 0 22 22" id="plus" xmlns="http://www.w3.org/2000/svg"><path d="M17.417 19.25L11 15.583 4.583 19.25V4.583A1.833 1.833 0 016.417 2.75h9.166a1.833 1.833 0 011.834 1.833V19.25zM11 6.417v5.5M13.75 9.167h-5.5" stroke="#fff" stroke-width="1.5" stroke-linecap="round" stroke-linejoin="round"/></svg><svg fill="none" viewBox="0 0 17 17" id="time" xmlns="http://www.w3.org/2000/svg"><path d="M14.378 4.857a.725.725 0 00-.337.968l.09-.044-.09.044A6.157 6.157 0 018.5 14.65 6.157 6.157 0 012.35 8.5 6.157 6.157 0 018.5 2.35c1.406 0 2.725.459 3.818 1.327a.725.725 0 10.902-1.135A7.612 7.612 0 008.5.9C4.31.9.9 4.31.9 8.5c0 4.19 3.41 7.6 7.6 7.6 4.19 0 7.6-3.41 7.6-7.6 0-1.16-.254-2.274-.754-3.306a.724.724 0 00-.968-.337zm0 0s0 0 0 0l.044.09-.044-.09s0 0 0 0z" fill="url(#fpaint0_linear_257_15929)" stroke="url(#fpaint1_linear_257_15929)" stroke-width=".2"/><path d="M8.5 3.4c-.4 0-.725.325-.725.725V8.5c0 .4.325.725.725.725h3.125a.725.725 0 000-1.45h-2.4v-3.65c0-.4-.325-.725-.725-.725z" fill="url(#fpaint2_linear_257_15929)" stroke="url(#fpaint3_linear_257_15929)" stroke-width=".2"/><defs><linearGradient id="fpaint0_linear_257_15929" x1="1" y1="1" x2="17.059" y2="2.236" gradientUnits="userSpaceOnUse"><stop stop-color="#6A3093"/><stop offset="1" stop-color="#A044FF"/></linearGradient><linearGradient id="fpaint1_linear_257_15929" x1="1" y1="1" x2="17.059" y2="2.236" gradientUnits="userSpaceOnUse"><stop stop-color="#6A3093"/><stop offset="1" stop-color="#A044FF"/></linearGradient><linearGradient id="fpaint2_linear_257_15929" x1="7.875" y1="3.5" x2="12.57" y2="3.781" gradientUnits="userSpaceOnUse"><stop stop-color="#6A3093"/><stop offset="1" stop-color="#A044FF"/></linearGradient><linearGradient id="fpaint3_linear_257_15929" x1="7.875" y1="3.5" x2="12.57" y2="3.781" gradientUnits="userSpaceOnUse"><stop stop-color="#6A3093"/><stop offset="1" stop-color="#A044FF"/></linearGradient></defs></svg><svg fill="none" viewBox="0 0 18 17" id="watch" xmlns="http://www.w3.org/2000/svg"><g opacity=".2" fill="#000"><path d="M9 1.778C5.152 1.778 1.8 4.284 0 8c1.8 3.716 5.152 6.222 9 6.222S16.2 11.717 18 8c-1.8-3.716-5.152-6.222-9-6.222zm0 10.111c-2.071 0-3.75-1.74-3.75-3.889 0-2.148 1.679-3.889 3.75-3.889 2.071 0 3.75 1.74 3.75 3.889 0 2.148-1.679 3.889-3.75 3.889z"/><path d="M9 10.333c1.243 0 2.25-1.044 2.25-2.333 0-1.289-1.007-2.333-2.25-2.333S6.75 6.71 6.75 8c0 1.289 1.007 2.333 2.25 2.333z"/></g><rect x="1.473" y="14.329" width="20.037" height="2.523" rx="1.261" transform="rotate(-45 1.473 14.329)" fill="#C4C4C4" stroke="#fff"/></svg></svg>